PathFileType	4	(x/y/z)	A01_PREF_T0017.trc
DataRate	CameraRate	NumFrames	NumMarkers	Units	OrigDataRate	OrigDataStartFrame	OrigNumFrames
240	240	7	48	mm	240	145	289
Frame#	Time	TOP_HEAD			R_AC			L_AC			R_ASIS			L_ASIS			R_PSIS			L_PSIS			SACRAL			L_IC			R_IC			L_GT			R_GT			R_LAT_KNEE			R_MED_KNEE			L_MED_KNEE			L_LAT_KNEE			R_TOE			L_TOE			R_1ST_MET			L_1ST_MET			L_5TH_MET			R_5TH_MET			R_LAT_ANK			R_MED_ANK			L_MED_ANK			L_LAT_ANK			L_HEEL_SUP			R_HEEL_SUP			L_HEEL_LAT			R_HEEL_LAT			L_HEEL_MED			R_HEEL_MED			R_SHANK_PROX_POST			R_SHANK_PROX_ANT			R_SHANK_DIST_ANT			R_SHANK_DIST_POST			R_THIGH_PROX_POST			R_THIGH_PROX_ANT			R_THIGH_DIST_ANT			R_THIGH_DIST_POST			L_SHANK_PROX_ANT			L_SHANK_PROX_POST			L_SHANK_DIST_POST			L_SHANK_DIST_ANT			L_THIGH_PROX_ANT			L_THIGH_PROX_POST			L_THIGH_DIST_POST			L_THIGH_DIST_ANT			
		X1	Y1	Z1	X2	Y2	Z2	X3	Y3	Z3	X4	Y4	Z4	X5	Y5	Z5	X6	Y6	Z6	X7	Y7	Z7	X8	Y8	Z8	X9	Y9	Z9	X10	Y10	Z10	X11	Y11	Z11	X12	Y12	Z12	X13	Y13	Z13	X14	Y14	Z14	X15	Y15	Z15	X16	Y16	Z16	X17	Y17	Z17	X18	Y18	Z18	X19	Y19	Z19	X20	Y20	Z20	X21	Y21	Z21	X22	Y22	Z22	X23	Y23	Z23	X24	Y24	Z24	X25	Y25	Z25	X26	Y26	Z26	X27	Y27	Z27	X28	Y28	Z28	X29	Y29	Z29	X30	Y30	Z30	X31	Y31	Z31	X32	Y32	Z32	X33	Y33	Z33	X34	Y34	Z34	X35	Y35	Z35	X36	Y36	Z36	X37	Y37	Z37	X38	Y38	Z38	X39	Y39	Z39	X40	Y40	Z40	X41	Y41	Z41	X42	Y42	Z42	X43	Y43	Z43	X44	Y44	Z44	X45	Y45	Z45	X46	Y46	Z46	X47	Y47	Z47	X48	Y48	Z48	

145	0.60208	279.3	1717.6	329.54	16.859	1536.2	531.93	50.68	1534.3	76.155	34.476	1062.2	502.99	15.218	997.26	149.49	-186.4	1067.9	393.3	-182.47	1080.9	260.68	-203.54	1046.7	325.49	-0.21297	1129.9	115.79	-8.1849	1168.3	517.17	-67.214	931.5	114.77	-15.952	950.61	548.44	106.69	560.44	478.05	126.98	568.48	345.2	-155.2	542	346.97	-167.64	547.91	189.75	498.93	223.75	398.5	-197.09	70.471	272.13	444.87	159.92	349.16	-281.88	58.712	323.84	-309.03	52.285	197.27	423.24	134.69	479.19	289.74	124.28	452.86	295.25	138.31	351.25	-373.25	159.54	300.19	-405.11	160.04	232.66	-510.33	129.91	271.43	227.69	43.511	390.24	-506.98	99.143	241.19	246.83	27.179	425.98	-497.99	97.678	304.58	253.71	26.649	365.84	92.699	358.21	478.55	159.38	379.73	501.29	194.65	314.03	485.59	144.6	292.7	470.86	-12.562	801.82	527.65	48.022	841.48	534.61	79.452	756.62	522.17	21.666	719.75	513.01	-161.2	454.55	207.03	-211.02	477.03	193.83	-243.16	423.56	204.44	-191.86	408.21	215.31	-43.279	779.86	156.57	-109.23	803.49	141.21	-116.87	728.91	153.72	-57.931	708.01	168.43
146	0.60626	285.06	1716.8	330.23	23.168	1534.8	533.02	56.391	1533.5	77.252	41.499	1061.1	503.21	21.089	996.26	149.7	-179.91	1066.8	394.32	-176.19	1079.9	261.68	-197.15	1045.6	326.52	5.5654	1129.2	116.3	-1.1621	1167	517.79	-61.474	930.62	115.09	-8.6075	949.5	548.75	114.36	559.75	477.95	133.75	567.63	345.19	-149.99	541.08	346.88	-162.34	547.06	189.7	504.44	220.3	395.34	-196.59	70.091	272.07	449.37	156.79	346.84	-281.37	58.988	323.83	-308.59	52.669	197.23	428.64	132.39	477.11	295.12	123.1	452.07	299.8	136.69	350.29	-371.75	160.64	300.09	-403.56	161.52	232.6	-509.12	132.26	271.36	231.48	43.299	390.2	-506.14	101.48	241.21	250.73	26.931	425.88	-497.09	99.978	304.52	257	25.929	365.67	99.699	357.7	479.17	166.75	378.97	501.08	201.51	313.09	485.16	151.21	291.93	471.08	-5.1281	800.91	528	55.458	840.75	534.66	86.982	755.96	522.09	29.252	718.93	513.22	-156.8	453.65	207	-206.4	476.6	193.77	-239.06	423.43	204.39	-187.92	407.61	215.26	-37.715	778.86	156.81	-103.63	802.61	141.43	-111.42	728.02	153.9	-52.493	707.02	168.59
147	0.61045	290.83	1716.1	330.92	29.512	1533.4	534.15	62.089	1532.7	78.364	48.504	1060.1	503.45	27.027	995.26	149.95	-173.42	1065.6	395.3	-169.88	1078.8	262.62	-190.74	1044.5	327.49	11.417	1128.5	116.82	5.8374	1165.7	518.44	-55.644	929.71	115.44	-1.2669	948.45	549.08	122.07	559.13	477.86	140.58	566.83	345.2	-144.57	540.12	346.79	-156.84	546.17	189.65	509.76	216.36	392.24	-196.07	69.693	272.01	453.56	153.3	344.59	-280.82	59.289	323.81	-308.11	53.091	197.2	433.66	129.8	475.08	300.14	121.87	451.31	304.03	135.01	349.36	-370.15	161.82	299.99	-401.92	163.09	232.55	-507.81	134.76	271.29	234.78	43.2	390.2	-505.22	103.97	241.23	254.1	26.774	425.82	-496.12	102.42	304.46	259.74	25.274	365.55	106.62	357.29	479.81	174.05	378.27	500.86	208.23	312.17	484.74	157.67	291.23	471.3	2.3465	800.08	528.35	62.92	840.11	534.68	94.56	755.39	521.99	36.893	718.19	513.43	-152.23	452.72	206.96	-201.61	476.16	193.71	-234.8	423.31	204.34	-183.82	407	215.22	-32.04	777.84	157.07	-97.921	801.69	141.66	-105.85	727.1	154.09	-46.922	706.02	168.77
148	0.61463	296.62	1715.4	331.59	35.89	1532	535.3	67.774	1531.9	79.488	55.484	1059.1	503.72	33.034	994.26	150.22	-166.95	1064.5	396.22	-163.55	1077.7	263.5	-184.31	1043.3	328.41	17.344	1127.8	117.35	12.81	1164.4	519.11	-49.724	928.78	115.81	6.0604	947.47	549.43	129.8	558.6	477.77	147.44	566.1	345.2	-138.94	539.13	346.7	-151.13	545.26	189.59	514.9	211.98	389.24	-195.53	69.275	271.95	457.47	149.48	342.42	-280.24	59.615	323.8	-307.61	53.555	197.17	438.31	126.95	473.12	304.82	120.63	450.59	307.96	133.3	348.47	-368.45	163.09	299.89	-400.16	164.75	232.5	-506.38	137.41	271.24	237.64	43.223	390.22	-504.21	106.62	241.27	256.99	26.715	425.78	-495.06	105.02	304.42	261.99	24.704	365.46	113.45	357.01	480.47	181.27	377.65	500.65	214.83	311.31	484.31	163.99	290.62	471.55	9.8474	799.33	528.69	70.396	839.55	534.67	102.16	754.9	521.88	44.566	717.53	513.64	-147.49	451.77	206.92	-196.63	475.71	193.64	-230.36	423.21	204.29	-179.55	406.39	215.17	-26.252	776.83	157.35	-92.108	800.75	141.9	-100.16	726.15	154.29	-41.211	705	168.95
149	0.61881	302.42	1714.7	332.25	42.299	1530.5	536.48	73.447	1531.1	80.62	62.429	1058.2	504.02	39.108	993.26	150.54	-160.49	1063.3	397.08	-157.2	1076.5	264.32	-177.86	1042.2	329.28	23.347	1127	117.88	19.752	1163.1	519.81	-43.715	927.82	116.2	13.364	946.58	549.78	137.54	558.17	477.69	154.3	565.43	345.21	-133.09	538.11	346.6	-145.21	544.32	189.54	519.87	207.23	386.38	-194.96	68.834	271.89	461.14	145.4	340.38	-279.62	59.969	323.8	-307.07	54.067	197.13	442.62	123.9	471.28	309.19	119.38	449.92	311.62	131.6	347.63	-366.63	164.46	299.81	-398.28	166.53	232.47	-504.82	140.23	271.19	240.11	43.37	390.26	-503.09	109.43	241.31	259.44	26.755	425.77	-493.89	107.78	304.4	263.83	24.232	365.41	120.19	356.85	481.12	188.4	377.11	500.44	221.29	310.51	483.88	170.18	290.1	471.79	17.359	798.66	529.03	77.869	839.08	534.65	109.78	754.51	521.75	52.247	716.96	513.85	-142.56	450.81	206.87	-191.44	475.26	193.58	-225.73	423.11	204.25	-175.11	405.77	215.12	-20.349	775.82	157.64	-86.188	799.79	142.16	-94.336	725.16	154.51	-35.359	703.98	169.14
150	0.62299	308.25	1714.1	332.89	48.738	1529.1	537.69	79.109	1530.3	81.756	69.332	1057.4	504.34	45.248	992.28	150.9	-154.05	1062.2	397.89	-150.84	1075.4	265.08	-171.4	1041	330.08	29.425	1126.2	118.42	26.66	1161.8	520.55	-37.617	926.84	116.63	20.634	945.77	550.16	145.26	557.84	477.62	161.13	564.86	345.21	-126.99	537.06	346.5	-139.06	543.35	189.48	524.7	202.15	383.7	-194.37	68.369	271.84	464.58	141.12	338.47	-278.96	60.354	323.81	-306.49	54.632	197.1	446.6	120.67	469.55	313.26	118.15	449.3	315.06	129.92	346.84	-364.68	165.94	299.73	-396.28	168.41	232.44	-503.12	143.22	271.17	242.24	43.64	390.33	-501.86	112.43	241.36	261.51	26.894	425.78	-492.62	110.73	304.38	265.29	23.87	365.39	126.84	356.82	481.76	195.44	376.65	500.23	227.63	309.78	483.46	176.22	289.69	472.04	24.865	798.09	529.38	85.325	838.71	534.61	117.37	754.2	521.61	59.914	716.47	514.07	-137.43	449.83	206.83	-186.05	474.81	193.52	-220.91	423.04	204.2	-170.49	405.16	215.08	-14.328	774.81	157.94	-80.158	798.81	142.43	-88.388	724.14	154.75	-29.359	702.97	169.34
151	0.62717	314.11	1713.4	333.52	55.204	1527.6	538.93	84.764	1529.5	82.891	76.183	1056.8	504.69	51.45	991.31	151.3	-147.63	1061.2	398.64	-144.47	1074.2	265.77	-164.95	1039.8	330.83	35.578	1125.4	118.98	33.531	1160.5	521.33	-31.432	925.85	117.08	27.86	945.07	550.55	152.95	557.62	477.56	167.92	564.38	345.21	-120.66	535.98	346.4	-132.67	542.37	189.43	529.37	196.82	381.23	-193.76	67.878	271.79	467.83	136.7	336.74	-278.26	60.772	323.83	-305.87	55.254	197.08	450.27	117.3	467.97	317.05	116.95	448.73	318.29	128.29	346.13	-362.61	167.52	299.66	-394.13	170.41	232.43	-501.26	146.4	271.16	244.09	44.029	390.4	-500.5	115.62	241.42	263.25	27.127	425.8	-491.22	113.86	304.39	266.45	23.625	365.39	133.4	356.92	482.39	202.38	376.3	500.03	233.83	309.15	483.05	182.14	289.38	472.28	32.348	797.62	529.74	92.748	838.43	534.56	124.94	754	521.47	67.546	716.09	514.3	-132.1	448.85	206.79	-180.44	474.35	193.46	-215.88	422.99	204.16	-165.67	404.55	215.04	-8.1878	773.82	158.27	-74.018	797.81	142.72	-82.308	723.11	155.01	-23.209	701.95	169.56
